<?xml version="1.0" standalone="no"?><!DOCTYPE svg PUBLIC "-//W3C//DTD SVG 1.1//EN" "http://www.w3.org/Graphics/SVG/1.1/DTD/svg11.dtd"><svg t="1741247541868" class="icon" viewBox="0 0 1024 1024" version="1.1" xmlns="http://www.w3.org/2000/svg" p-id="3124" xmlns:xlink="http://www.w3.org/1999/xlink" width="200" height="200"><path d="M491.96 832.81c-2.65 0-4.79-2.14-4.79-4.79V672.83c0-2.65 2.14-4.79 4.79-4.79s4.79 2.14 4.79 4.79v155.19c0 2.65-2.14 4.79-4.79 4.79zM513.54 832.81c-2.65 0-4.79-2.14-4.79-4.79V672.83c0-2.65 2.14-4.79 4.79-4.79s4.79 2.14 4.79 4.79v155.19c0 2.65-2.14 4.79-4.79 4.79zM535.11 832.81c-2.65 0-4.79-2.14-4.79-4.79V672.83c0-2.65 2.14-4.79 4.79-4.79s4.79 2.14 4.79 4.79v155.19c0.01 2.65-2.14 4.79-4.79 4.79zM512 411.75c-23.7 0-23.97-105.78-23.97-110.28s0.27-110.28 23.97-110.28 23.97 105.78 23.97 110.28-0.27 110.28-23.97 110.28z m-0.39-211.04c-4.53 2.61-14 38.52-14 100.76s9.47 98.15 14.77 100.76c4.53-2.61 14-38.52 14-100.76s-9.47-98.15-14.77-100.76z" fill="#DE5349" p-id="3125"></path><path d="M452.43 625.47c-2.71 4.38-5.74 8.66-9.2 12.76-30.74 36.43-79.28 46.03-108.43 21.44-29.15-24.59-27.86-74.06 2.88-110.49 6.89-8.16 14.7-14.9 22.95-20.28-1.08-6.56-1.57-13.2-1.54-19.86-12.52 7.2-24.37 16.87-34.61 29.01-38.42 45.54-40.03 107.37-3.6 138.11 36.43 30.74 97.11 18.74 135.53-26.8 5.73-6.79 10.54-13.97 14.63-21.33-6.23-0.34-12.45-1.23-18.61-2.56z" fill="#FA675D" p-id="3126"></path><path d="M442.39 600.98c-1.53 2.54-3.25 5.02-5.24 7.38-17.68 20.96-46.97 25.33-65.41 9.76s-19.07-45.17-1.39-66.12c3.96-4.7 8.52-8.51 13.4-11.5-0.84-3.96-1.33-7.96-1.5-11.94a68.977 68.977 0 0 0-20.25 16.4c-22.1 26.19-21.32 63.2 1.74 82.65 23.06 19.45 59.67 13.99 81.77-12.2 3.3-3.91 6.02-8.07 8.3-12.37-3.82-0.38-7.64-1.09-11.42-2.06zM561.98 625.47c2.71 4.38 5.74 8.66 9.2 12.76 30.74 36.43 79.28 46.03 108.43 21.44 29.15-24.59 27.86-74.06-2.88-110.49-6.89-8.16-14.7-14.9-22.95-20.28 1.08-6.56 1.57-13.2 1.54-19.86 12.52 7.2 24.37 16.87 34.61 29.01 38.42 45.54 40.03 107.37 3.6 138.11-36.43 30.74-97.11 18.74-135.53-26.8-5.73-6.79-10.54-13.97-14.63-21.33 6.23-0.34 12.45-1.23 18.61-2.56z" fill="#FA675D" p-id="3127"></path><path d="M572.53 600.55c1.51 2.56 3.22 5.05 5.21 7.41 17.68 20.96 47.81 24.61 67.3 8.17 19.49-16.44 20.96-46.76 3.28-67.72-3.96-4.7-8.57-8.47-13.52-11.4 0.98-4.08 1.6-8.18 1.88-12.26a65.594 65.594 0 0 1 20.46 16.22c22.1 26.19 20.26 64.09-4.1 84.65-24.36 20.56-62.03 15.98-84.13-10.21-3.3-3.91-5.99-8.09-8.23-12.43 3.95-0.49 7.91-1.32 11.85-2.43z" fill="#FA675D" p-id="3128"></path><path d="M567.081 474.178l36.083-36.084 36.09 36.09-36.083 36.084zM613.482 520.573l36.084-36.083 36.083 36.083-36.083 36.083zM520.686 520.58l36.084-36.084 36.09 36.09-36.083 36.084zM520.687 427.79l36.083-36.084 36.083 36.083-36.083 36.083zM474.292 474.177l36.084-36.084 36.083 36.084-36.083 36.083zM371.2 463.87l36.09-36.09-63.09-63.09a118.424 118.424 0 0 0-28.04 44.13l55.04 55.05zM649.57 463.87l59.68-59.68c-6.63-16.34-16.85-30.81-29.62-42.56l-66.15 66.15 36.09 36.09zM567.08 566.968l36.084-36.084 36.083 36.084-36.083 36.083zM360.89 474.18l-49.27-49.27c-1.59 7.74-2.51 15.72-2.51 23.93 0 22.12 6.08 42.79 16.62 60.5l35.16-35.16zM427.897 520.578l36.083-36.083 36.083 36.083-36.083 36.083zM371.2 484.49l-37.06 37.06c1.51 1.93 3 3.88 4.62 5.71l30.92 30.92 37.61-37.61-36.09-36.08zM695.96 510.27l10.48-10.48c7.36-15.44 11.52-32.7 11.52-50.96 0-10.04-1.3-19.76-3.66-29.07l-54.42 54.42 36.08 36.09zM520.685 613.369l36.083-36.083 36.084 36.083-36.084 36.083zM556.78 371.08l40.77-40.77c-23.06 0.35-44.54 7.22-62.61 18.93l21.84 21.84zM500.54 355.14l-26.25 26.25 36.09 36.09 36.08-36.08-23.96-23.96c-7.12 3.15-15.42 2.41-21.96-2.3zM463.99 371.08l24.19-24.19c-17.72-10.53-38.36-16.66-60.47-16.66-1.48 0-2.92 0.13-4.38 0.18l40.66 40.67zM510.39 623.68l-37.61 37.61 25.23 25.23c4.23 4.23 9.76 6.35 15.3 6.41l33.16-33.16-36.08-36.09zM417.6 417.48l36.09-36.09-48.86-48.86a117.944 117.944 0 0 0-49.64 22.53l62.41 62.42zM567.09 381.39l36.08 36.08 65.1-65.1a117.937 117.937 0 0 0-51.38-20.79l-49.8 49.81zM381.502 474.176l36.084-36.083 36.083 36.083-36.083 36.084zM379.977 568.488l37.604-37.603 36.083 36.083-37.603 37.604zM474.291 566.966l36.083-36.083 36.09 36.09-36.083 36.084zM426.378 614.884l37.604-37.604 36.09 36.09-37.603 37.604zM427.898 427.79l36.083-36.084 36.083 36.083-36.083 36.083z" fill="#FA675D" p-id="3129"></path><path d="M321.5 493.98c-5.09 0.75-10.32 1.19-15.68 1.19-47.67 0-86.31-30.91-86.31-69.05s38.64-69.05 86.31-69.05c10.68 0 20.86 1.62 30.3 4.46 4.32-5.06 9.08-9.71 14.19-13.98-13.58-4.93-28.61-7.74-44.49-7.74-59.58 0-107.88 38.64-107.88 86.31s48.3 86.31 107.88 86.31c8.89 0 17.47-0.95 25.74-2.58-3.77-4.98-7.1-10.3-10.06-15.87z" fill="#FA675D" p-id="3130"></path><path d="M333.74 463.83c-2.93 0.42-5.94 0.66-9.02 0.66-27.42 0-49.64-17.17-49.64-38.36 0-21.18 22.23-38.36 49.64-38.36 6.14 0 12 0.9 17.43 2.48 2.49-2.81 5.22-5.4 8.16-7.77-7.81-2.74-16.46-4.3-25.59-4.3-34.27 0-62.05 21.47-62.05 47.95 0 26.48 27.78 47.95 62.05 47.95 5.11 0 10.05-0.53 14.8-1.43-2.16-2.77-4.08-5.73-5.78-8.82z" fill="#FA675D" p-id="3131"></path><path d="M702.5 493.98c5.09 0.75 10.32 1.19 15.68 1.19 47.67 0 86.31-30.91 86.31-69.05s-38.64-69.05-86.31-69.05c-10.68 0-20.86 1.62-30.3 4.46-4.32-5.06-9.08-9.71-14.19-13.98 13.58-4.93 28.61-7.74 44.49-7.74 59.58 0 107.88 38.64 107.88 86.31s-48.3 86.31-107.88 86.31c-8.89 0-17.47-0.95-25.74-2.58 3.77-4.98 7.1-10.3 10.06-15.87z" fill="#FA675D" p-id="3132"></path><path d="M690.26 463.83c2.93 0.42 5.94 0.66 9.02 0.66 27.42 0 49.64-17.17 49.64-38.36 0-21.18-22.23-38.36-49.64-38.36-6.14 0-12 0.9-17.43 2.48-2.49-2.81-5.22-5.4-8.16-7.77 7.81-2.74 16.46-4.3 25.59-4.3 34.27 0 62.05 21.47 62.05 47.95 0 26.48-27.78 47.95-62.05 47.95-5.11 0-10.05-0.53-14.8-1.43 2.16-2.77 4.08-5.73 5.78-8.82z" fill="#FA675D" p-id="3133"></path></svg>