<?xml version="1.0" standalone="no"?><!DOCTYPE svg PUBLIC "-//W3C//DTD SVG 1.1//EN" "http://www.w3.org/Graphics/SVG/1.1/DTD/svg11.dtd"><svg t="1741949958779" class="icon" viewBox="0 0 1353 1024" version="1.1" xmlns="http://www.w3.org/2000/svg" p-id="6085" xmlns:xlink="http://www.w3.org/1999/xlink" width="264.2578125" height="200"><path d="M97.309942 16.467836C46.409357 38.923977 11.976608 89.824561 4.491228 155.695906c-7.48538 61.380117-2.994152 68.865497 67.368421 139.228071 58.385965 59.883041 77.847953 89.824561 89.824562 152.701754 25.450292 113.777778-5.988304 206.596491-95.812866 288.935673C0 797.94152-2.994152 802.432749 4.491228 866.807018c4.491228 46.409357 19.461988 80.842105 46.409357 107.789473L89.824561 1013.520468l411.695907 4.491228 411.695906 4.491228v-53.894737c0-41.918129 5.988304-52.397661 29.941521-52.397661s29.94152 10.479532 29.94152 53.894737v53.894737l142.222222-5.988304c130.245614-4.491228 145.216374-7.48538 181.146199-44.912281 29.94152-28.444444 41.918129-58.385965 46.409357-112.280702 5.988304-65.871345 2.994152-73.356725-37.426901-100.304093-98.807018-64.374269-146.71345-188.631579-119.766081-315.883041 11.976608-59.883041 29.94152-89.824561 89.824561-148.210526 73.356725-70.362573 74.853801-74.853801 67.368421-139.228071-4.491228-46.409357-19.461988-80.842105-46.409357-107.789473C1260.538012 13.473684 1245.567251 10.479532 1115.321637 5.988304L973.099415 0v53.894737c0 43.415205-5.988304 53.894737-29.94152 53.894737s-29.94152-10.479532-29.941521-52.397661V2.994152L520.982456 4.491228C303.906433 4.491228 113.777778 10.479532 97.309942 16.467836zM763.508772 489.54386V781.473684l-35.929825 22.456141c-22.45614 14.97076-59.883041 22.45614-94.315789 19.461988-44.912281-2.994152-58.385965-10.479532-61.380117-37.426901-4.491228-25.450292 1.497076-29.94152 25.450292-23.953216 16.467836 4.491228 47.906433 2.994152 68.865497-1.497076C700.631579 751.532164 703.625731 744.046784 703.625731 676.678363v-74.853802H377.263158l-10.479532 47.906433c-13.473684 58.385965-59.883041 155.695906-82.339182 169.169591-8.982456 5.988304-25.450292 1.497076-37.4269-7.48538-17.964912-14.97076-14.97076-25.450292 14.97076-71.859649 43.415205-65.871345 67.368421-205.099415 67.368421-404.210527V197.614035h434.152047v291.929825zM973.099415 272.467836c0 64.374269-4.491228 74.853801-29.94152 74.853801s-29.94152-10.479532-29.941521-74.853801 4.491228-74.853801 29.941521-74.853801 29.94152 10.479532 29.94152 74.853801z m0 239.532164c0 64.374269-4.491228 74.853801-29.94152 74.853801s-29.94152-10.479532-29.941521-74.853801 4.491228-74.853801 29.941521-74.853801 29.94152 10.479532 29.94152 74.853801z m0 232.046784c0 56.888889-4.491228 67.368421-29.94152 67.368421s-29.94152-10.479532-29.941521-67.368421 4.491228-67.368421 29.941521-67.368421 29.94152 10.479532 29.94152 67.368421z" p-id="6086"></path><path d="M389.239766 317.380117v59.883041h314.385965v-119.766082H389.239766v59.883041zM386.245614 489.54386c-2.994152 29.94152-2.994152 56.888889 1.497076 59.883041 2.994152 4.491228 76.350877 7.48538 161.684211 7.48538H703.625731v-119.766082H392.233918l-5.988304 52.397661z" p-id="6087"></path></svg>