<?xml version="1.0" standalone="no"?><!DOCTYPE svg PUBLIC "-//W3C//DTD SVG 1.1//EN" "http://www.w3.org/Graphics/SVG/1.1/DTD/svg11.dtd"><svg t="1741796794191" class="icon" viewBox="0 0 1024 1024" version="1.1" xmlns="http://www.w3.org/2000/svg" p-id="5411" xmlns:xlink="http://www.w3.org/1999/xlink" width="200" height="200"><path d="M646.760058 802.907161c-19.971213 56.220055-73.187221 96.72273-136.243069 96.72273-63.055848 0-116.271856-40.502675-136.243069-96.72273h272.486138zM844.479632 785.377212H176.564487c-12.766569-15.508238-15.823853-38.601379-3.035736-57.784188l46.660339-69.903049v-193.551933c0-128.746892 83.901657-237.792556 199.946625-275.812138 13.824957-36.636706 48.906403-62.903744 90.382542-62.903744 41.474871 0 76.556317 26.268306 90.381274 62.903744 116.044968 38.019582 199.945358 147.065246 199.945357 275.812138v193.551933l46.660339 69.903049c12.786849 19.225905 9.7321 42.297498-3.025595 57.784188z" fill="" p-id="5412"></path></svg>